<svg width="120" height="120" viewBox="0 0 120 120" fill="none" xmlns="http://www.w3.org/2000/svg">
<rect width="120" height="120" rx="60" fill="black"/>
<path d="M26.0935 47.5598C28.8594 39.9323 34.1196 33.4618 41.0218 29.197C47.924 24.9321 56.064 23.1224 64.123 24.0611C72.1821 24.9999 79.6882 28.6321 85.4254 34.3693L94.4058 43.3497C96.7489 45.6928 96.7489 49.4918 94.4058 51.8349L86.762 59.4787C86.2934 59.9474 86.2934 60.7072 86.762 61.1758L91.64 66.0538C95.241 69.6549 95.241 75.4933 91.64 79.0943L85.4254 85.309C82.0807 88.6537 78.1099 91.307 73.7398 93.1172C69.3697 94.9273 64.6858 95.8589 59.9556 95.8589C55.2255 95.8589 50.5415 94.9272 46.1714 93.1171C42.7617 91.7047 39.595 89.7791 36.7791 87.4123C33.0005 84.6 27.7566 78.3234 25.3426 69.7636C25.3165 69.7014 25.2938 69.6369 25.275 69.5701C23.2468 62.342 23.5244 54.6444 26.0935 47.5598ZM55.8204 49.8559C53.8459 50.6738 52.1581 52.0588 50.9708 53.8358C49.7834 55.6128 49.1497 57.702 49.1497 59.8392C49.1497 61.9764 49.7835 64.0657 50.9708 65.8427C52.1582 67.6197 53.8459 69.0048 55.8204 69.8226C57.7948 70.6405 59.9676 70.8544 62.0637 70.4375C63.5918 70.1335 65.0292 69.5041 66.2815 68.5998C67.0557 68.0409 68.1438 68.0274 68.819 68.7026L71.4679 71.3515C72.1229 72.0065 72.1469 73.0633 71.475 73.6804C71.397 73.8021 71.3049 73.9176 71.1985 74.024L69.9682 75.2543C69.9682 75.2543 67.2259 77.9599 65.6407 79.5818C62.7362 82.5536 59.4721 85.7595 55.3102 88.2779C56.8424 88.5282 58.3959 88.655 59.9556 88.655C63.7397 88.655 67.4868 87.9097 70.9828 86.4616C74.4789 85.0135 77.6556 82.8908 80.3314 80.215L85.5272 75.0191C86.8776 73.6688 86.8776 71.4793 85.5273 70.1289L67.5965 52.1981C66.0853 50.687 64.1598 49.6579 62.0638 49.241C59.9676 48.824 57.7949 49.038 55.8204 49.8559ZM44.8086 35.3253C39.2868 38.7372 35.0786 43.9136 32.8659 50.0156C30.866 55.5305 30.6021 61.5095 32.0841 67.1551C32.0882 67.1672 32.0924 67.1792 32.0964 67.1914C34.924 75.7635 39.4154 80.7756 42.3074 82.4246C45.1297 84.0338 48.0599 83.8348 51.2991 82.3153C53.0279 81.5044 55.4277 79.4543 57.3469 77.6591C55.8835 77.4449 54.4443 77.0502 53.0634 76.4782C49.7726 75.1151 46.9598 72.8066 44.9808 69.8449C43.0019 66.8833 41.9457 63.4012 41.9457 59.8393C41.9457 56.2773 43.0019 52.7951 44.9808 49.8334C46.9598 46.8718 49.7726 44.5634 53.0635 43.2002C56.3543 41.8372 59.9756 41.4804 63.4691 42.1753C66.9626 42.8702 70.1717 44.5856 72.6904 47.1042L79.9738 54.3876C80.4424 54.8562 81.2022 54.8562 81.6708 54.3876L87.6147 48.4436C88.0834 47.975 88.0834 47.2152 87.6147 46.7466L80.3314 39.4632C75.7417 34.8735 69.7367 31.9679 63.2895 31.2169C56.8423 30.4659 50.3303 31.9135 44.8086 35.3253Z" fill="white"/>
</svg>
