<svg width="32" height="32" viewBox="0 0 32 32" fill="none" xmlns="http://www.w3.org/2000/svg">
<rect width="32" height="32" rx="8" fill="#171717"/>
<path d="M11.9825 13.371C12.5322 12.5483 13.3135 11.9071 14.2277 11.5284C15.1418 11.1498 16.1477 11.0507 17.1181 11.2437C18.0885 11.4368 18.98 11.9132 19.6796 12.6129L24.9434 17.8766C25.9437 18.8769 25.9437 20.4987 24.9434 21.499L23.2171 23.2253C22.288 24.1544 21.185 24.8914 19.9711 25.3943C18.7572 25.8971 17.4561 26.1559 16.1422 26.1559C14.8282 26.1559 13.5271 25.897 12.3132 25.3942C11.2474 24.9527 10.267 24.3307 9.4148 23.5566C9.21846 23.3783 9.21923 23.0733 9.40678 22.8857L10.1426 22.1499C10.3301 21.9624 10.6333 21.9636 10.8317 22.1395C11.4966 22.7291 12.256 23.2046 13.079 23.5455C14.0501 23.9477 15.091 24.1548 16.1422 24.1548C17.1933 24.1547 18.2342 23.9477 19.2053 23.5455C20.1764 23.1432 21.0588 22.5536 21.8021 21.8103L23.2454 20.367C23.6205 19.9919 23.6205 19.3837 23.2454 19.0086L18.2646 14.0279C17.8448 13.6081 17.31 13.3222 16.7278 13.2064C16.1455 13.0906 15.542 13.15 14.9935 13.3772C14.445 13.6044 13.9762 13.9891 13.6464 14.4827C13.3165 14.9764 13.1405 15.5567 13.1405 16.1504C13.1405 16.744 13.3166 17.3244 13.6464 17.818C13.9762 18.3116 14.445 18.6964 14.9935 18.9235C15.5419 19.1507 16.1455 19.2101 16.7277 19.0943C17.1522 19.0099 17.5515 18.8351 17.8994 18.5839C18.1144 18.4286 18.4167 18.4249 18.6042 18.6124L19.34 19.3482C19.5276 19.5358 19.5289 19.8419 19.3242 20.0106C18.6885 20.5347 17.9311 20.8953 17.1182 21.057C16.1477 21.25 15.1418 21.151 14.2277 20.7723C13.3135 20.3937 12.5322 19.7524 11.9825 18.9298C11.4328 18.1071 11.1394 17.1398 11.1394 16.1504C11.1394 15.1609 11.4328 14.1937 11.9825 13.371ZM6.73601 12.7394C7.50434 10.6207 8.96549 8.82335 10.8828 7.63866C12.8 6.45398 15.0612 5.95127 17.2998 6.21203C19.5384 6.4728 21.6234 7.48175 23.2171 9.0754L25.7075 11.5658C25.895 11.7533 25.895 12.0574 25.7075 12.245L24.9717 12.9808C24.7841 13.1683 24.48 13.1683 24.2925 12.9808L21.8021 10.4904C20.5272 9.21547 18.8591 8.40832 17.0682 8.19971C15.2773 7.9911 13.4685 8.39325 11.9346 9.34099C10.4008 10.2887 9.23189 11.7266 8.61723 13.4216C8.05729 14.9657 7.98719 16.6409 8.40996 18.2201C8.47855 18.4764 8.344 18.7481 8.09236 18.8319L7.10513 19.1608C6.85349 19.2446 6.58034 19.1088 6.50867 18.8534C5.94527 16.8456 6.02238 14.7074 6.73601 12.7394Z" fill="white"/>
</svg>
