<svg width="670" height="381" viewBox="0 0 670 381" fill="none" xmlns="http://www.w3.org/2000/svg">
<path d="M628 74V109.645C628 118.933 621.606 126.998 612.563 129.117L523.937 149.883C514.894 152.002 508.5 160.067 508.5 169.355V199" stroke="#E8E8E8"/>
<path d="M628 74V109.645C628 118.933 621.606 126.998 612.563 129.117L523.937 149.883C514.894 152.002 508.5 160.067 508.5 169.355V199" stroke="url(#paint0_linear_1247_315)"/>
<path d="M390.5 243H159.182C151.553 243 144.084 240.819 137.654 236.713L74.3457 196.287C67.9162 192.181 60.4467 190 52.8182 190H0" stroke="#E8E8E8"/>
<path d="M507.5 289V306.824C507.5 315.559 513.168 323.283 521.499 325.903L555.501 336.597C563.832 339.217 569.5 346.941 569.5 355.676V381" stroke="#E8E8E8"/>
<path d="M507.5 289V306.824C507.5 315.559 513.168 323.283 521.499 325.903L555.501 336.597C563.832 339.217 569.5 346.941 569.5 355.676V381" stroke="url(#paint1_linear_1247_315)"/>
<rect x="582.75" y="0.75" width="86.5" height="86.5" rx="23.25" fill="white" stroke="#EAEAEA" stroke-width="1.5"/>
<rect x="595" y="18" width="17" height="6" rx="3" fill="#D9D9D9"/>
<rect x="595" y="28" width="17" height="6" rx="3" fill="#EDEDED"/>
<defs>
<linearGradient id="paint0_linear_1247_315" x1="568" y1="100" x2="568" y2="179" gradientUnits="userSpaceOnUse">
<stop offset="0.182692" stop-color="white" stop-opacity="0"/>
<stop offset="0.514423" stop-color="#1C89EA"/>
<stop offset="0.894231" stop-color="white" stop-opacity="0"/>
</linearGradient>
<linearGradient id="paint1_linear_1247_315" x1="538.5" y1="289" x2="538.5" y2="381" gradientUnits="userSpaceOnUse">
<stop stop-color="#E8E8E8" stop-opacity="0"/>
<stop offset="1" stop-color="#1C89EA"/>
</linearGradient>
</defs>
</svg>
