<svg xmlns="http://www.w3.org/2000/svg" xmlns:xlink="http://www.w3.org/1999/xlink" version="1.0" x="0" y="0"
     width="2400" height="2400" viewBox="139.39223361968993 94.39223361968995 61.21552894592285 61.21552894592285"
     preserveAspectRatio="xMidYMid meet" color-interpolation-filters="sRGB">
    <g>
        <defs>
            <linearGradient id="92" x1="0%" y1="0%" x2="100%" y2="0%">
                <stop offset="0%" stop-color="#fa71cd"></stop>
                <stop offset="100%" stop-color="#9b59b6"></stop>
            </linearGradient>
            <linearGradient id="93" x1="0%" y1="0%" x2="100%" y2="0%">
                <stop offset="0%" stop-color="#f9d423"></stop>
                <stop offset="100%" stop-color="#f83600"></stop>
            </linearGradient>
            <linearGradient id="94" x1="0%" y1="0%" x2="100%" y2="0%">
                <stop offset="0%" stop-color="#0064d2"></stop>
                <stop offset="100%" stop-color="#1cb0f6"></stop>
            </linearGradient>
            <linearGradient id="95" x1="0%" y1="0%" x2="100%" y2="0%">
                <stop offset="0%" stop-color="#f00978"></stop>
                <stop offset="100%" stop-color="#3f51b1"></stop>
            </linearGradient>
            <linearGradient id="96" x1="0%" y1="0%" x2="100%" y2="0%">
                <stop offset="0%" stop-color="#7873f5"></stop>
                <stop offset="100%" stop-color="#ec77ab"></stop>
            </linearGradient>
            <linearGradient id="97" x1="0%" y1="0%" x2="100%" y2="0%">
                <stop offset="0%" stop-color="#f9d423"></stop>
                <stop offset="100%" stop-color="#e14fad"></stop>
            </linearGradient>
            <linearGradient id="98" x1="0%" y1="0%" x2="100%" y2="0%">
                <stop offset="0%" stop-color="#009efd"></stop>
                <stop offset="100%" stop-color="#2af598"></stop>
            </linearGradient>
            <linearGradient id="99" x1="0%" y1="0%" x2="100%" y2="0%">
                <stop offset="0%" stop-color="#ffcc00"></stop>
                <stop offset="100%" stop-color="#00b140"></stop>
            </linearGradient>
            <linearGradient id="100" x1="0%" y1="0%" x2="100%" y2="0%">
                <stop offset="0%" stop-color="#d51007"></stop>
                <stop offset="100%" stop-color="#ff8177"></stop>
            </linearGradient>
            <linearGradient id="102" x1="0%" y1="0%" x2="100%" y2="0%">
                <stop offset="0%" stop-color="#a2b6df"></stop>
                <stop offset="100%" stop-color="#0c3483"></stop>
            </linearGradient>
            <linearGradient id="103" x1="0%" y1="0%" x2="100%" y2="0%">
                <stop offset="0%" stop-color="#7ac5d8"></stop>
                <stop offset="100%" stop-color="#eea2a2"></stop>
            </linearGradient>
            <linearGradient id="104" x1="0%" y1="0%" x2="100%" y2="0%">
                <stop offset="0%" stop-color="#00ecbc"></stop>
                <stop offset="100%" stop-color="#007adf"></stop>
            </linearGradient>
            <linearGradient id="105" x1="0%" y1="0%" x2="100%" y2="0%">
                <stop offset="0%" stop-color="#b88746"></stop>
                <stop offset="100%" stop-color="#fdf5a6"></stop>
            </linearGradient>
        </defs>
        <g class="imagesvg isNoFont" transform="translate(139.99238777160645,94.99238777160645)">
            <g>
                <rect fill="#333" fill-opacity="0" stroke-width="2" x="0" y="0" width="60.015222951923334"
                      height="60.015222951923334" class="image-rect"></rect>
                <svg filter="url(#colors9681206561)" x="0" y="0" width="60.015222951923334" height="60.015222951923334"
                     filtersec="colorsf8033235850" class="image-svg-svg primary" style="overflow: visible;">
                    <svg xmlns="http://www.w3.org/2000/svg" xmlns:xlink="http://www.w3.org/1999/xlink" version="1.1" x="0px" y="0px" viewBox="0 0 512 512" enable-background="new 0 0 512 512" xml:space="preserve"><path fill-rule="evenodd" clip-rule="evenodd" d="M107.297,309.859c-7.648,4.414-17.445,1.797-21.852-5.852  c-0.273-0.477-0.445-0.969-0.664-1.445C71.609,279.352,63.992,252.594,63.992,224c0-58.586,31.633-109.68,78.586-137.547  c0.477-0.336,0.898-0.711,1.43-1.016c7.648-4.414,17.422-1.797,21.852,5.859c4.414,7.648,1.805,17.438-5.852,21.852h-0.016  l0.047,0.086C121.789,135.359,96,176.633,96,224c0,23.328,6.344,45.117,17.242,63.953L113.156,288  C117.562,295.656,114.953,305.438,107.297,309.859L107.297,309.859z M224,95.992c-8.844,0-16-7.164-16-15.984  C208,71.164,215.156,64,224,64s16,7.164,16,16.008C240,88.828,232.844,95.992,224,95.992L224,95.992z M493.256,493.25  c-25,25-65.523,25-90.5,0l-42.865-42.844c-29.422-29.422-28.203-52.555-14.578-73.094l0,0c47.752-47.752,70.68-92.141,70.68-153.312  c0-106.031-85.945-192-191.992-192S32.008,117.969,32.008,224c0,106.039,85.945,192.008,191.992,192.008c8.844,0,16,7.164,16,15.984  c0,8.844-7.156,16.008-16,16.008C100.289,448,0,347.703,0,224C0,100.281,100.289,0,224,0c61.852,0,117.852,25.062,158.398,65.602  c5.273,5.273,10.195,10.773,14.844,16.43c2.008,2.438,3.766,5.07,5.688,7.594c2.508,3.328,5.07,6.641,7.383,10.062  c2.055,3.078,3.883,6.312,5.781,9.508c1.836,3.055,3.75,6.055,5.438,9.18c1.812,3.359,3.336,6.891,4.984,10.367  c1.492,3.164,3.094,6.297,4.414,9.508c1.391,3.359,2.531,6.836,3.766,10.281c1.242,3.445,2.562,6.906,3.633,10.406  c1.07,3.508,1.883,7.125,2.766,10.703c0.867,3.5,1.867,6.977,2.562,10.5c0.812,4.109,1.305,8.336,1.898,12.531  c0.445,3.047,1.023,6.109,1.328,9.172C447.594,209.125,448,216.531,448,224c0,6.422-0.375,12.859-0.914,19.273  c-0.172,1.883-0.391,3.734-0.594,5.602c-0.547,4.906-1.242,9.773-2.109,14.641c-0.305,1.664-0.555,3.359-0.898,5.008  c-1.234,6.195-2.734,12.32-4.492,18.383c-0.414,1.391-0.898,2.742-1.344,4.141c-1.461,4.641-3.07,9.266-4.852,13.844  c-0.883,2.289-1.797,4.562-2.766,6.805c-1.664,3.914-3.516,7.82-5.43,11.68c-1.398,2.812-2.82,5.594-4.328,8.344  c-9.977,18.156-22.484,35.281-37.875,50.672c-18.17,18.17-17.394,27.864,0,45.258l42.57,42.578  c12.492,12.492,32.758,12.492,45.266,0c12.484-12.492,12.484-32.758,0-45.258l-34.094-34.094c-0.141-0.141-0.328-0.172-0.461-0.305  c-6.242-6.258-6.242-16.398,0-22.641c6.266-6.242,16.391-6.242,22.641,0c0.047,0.055,0.047,0.102,0.102,0.156l0.086-0.086  l34.748,34.75C518.248,427.75,518.248,468.273,493.256,493.25L493.256,493.25z M287.992,416.008c8.844,0,16,7.164,16,15.984  c0,8.844-7.156,16.008-16,16.008c-8.82,0-15.984-7.164-15.984-16.008C272.008,423.172,279.172,416.008,287.992,416.008  L287.992,416.008z"></path></svg>
                </svg>
                <defs>
                    <filter id="colors9681206561">
                        <feColorMatrix type="matrix"
                                       values="0 0 0 0 0.19921875  0 0 0 0 0.19921875  0 0 0 0 0.19921875  0 0 0 1 0"
                                       class="icon-feColorMatrix "></feColorMatrix>
                    </filter>
                    <filter id="colorsf8033235850">
                        <feColorMatrix type="matrix"
                                       values="0 0 0 0 0.99609375  0 0 0 0 0.99609375  0 0 0 0 0.99609375  0 0 0 1 0"
                                       class="icon-fecolormatrix"></feColorMatrix>
                    </filter>
                    <filter id="colorsb2557793236">
                        <feColorMatrix type="matrix" values="0 0 0 0 0  0 0 0 0 0  0 0 0 0 0  0 0 0 1 0"
                                       class="icon-fecolormatrix"></feColorMatrix>
                    </filter>
                </defs>
            </g>
        </g>
        <defs v-gra="od"></defs>
    </g>

    <style>
        @media (prefers-color-scheme:dark){:root{filter:invert(100%)}}
    </style>
</svg>
