<svg xmlns="http://www.w3.org/2000/svg" xmlns:xlink="http://www.w3.org/1999/xlink" version="1.0" x="0" y="0" width="2400" height="648.5018956680896" viewBox="45.90923202514649 91.46954238891601 248.18153594970704 67.06091522216796" preserveAspectRatio="xMidYMid meet" color-interpolation-filters="sRGB"><g><defs><linearGradient id="92" x1="0%" y1="0%" x2="100%" y2="0%"><stop offset="0%" stop-color="#fa71cd"></stop> <stop offset="100%" stop-color="#9b59b6"></stop></linearGradient><linearGradient id="93" x1="0%" y1="0%" x2="100%" y2="0%"><stop offset="0%" stop-color="#f9d423"></stop> <stop offset="100%" stop-color="#f83600"></stop></linearGradient><linearGradient id="94" x1="0%" y1="0%" x2="100%" y2="0%"><stop offset="0%" stop-color="#0064d2"></stop> <stop offset="100%" stop-color="#1cb0f6"></stop></linearGradient><linearGradient id="95" x1="0%" y1="0%" x2="100%" y2="0%"><stop offset="0%" stop-color="#f00978"></stop> <stop offset="100%" stop-color="#3f51b1"></stop></linearGradient><linearGradient id="96" x1="0%" y1="0%" x2="100%" y2="0%"><stop offset="0%" stop-color="#7873f5"></stop> <stop offset="100%" stop-color="#ec77ab"></stop></linearGradient><linearGradient id="97" x1="0%" y1="0%" x2="100%" y2="0%"><stop offset="0%" stop-color="#f9d423"></stop> <stop offset="100%" stop-color="#e14fad"></stop></linearGradient><linearGradient id="98" x1="0%" y1="0%" x2="100%" y2="0%"><stop offset="0%" stop-color="#009efd"></stop> <stop offset="100%" stop-color="#2af598"></stop></linearGradient><linearGradient id="99" x1="0%" y1="0%" x2="100%" y2="0%"><stop offset="0%" stop-color="#ffcc00"></stop> <stop offset="100%" stop-color="#00b140"></stop></linearGradient><linearGradient id="100" x1="0%" y1="0%" x2="100%" y2="0%"><stop offset="0%" stop-color="#d51007"></stop> <stop offset="100%" stop-color="#ff8177"></stop></linearGradient><linearGradient id="102" x1="0%" y1="0%" x2="100%" y2="0%"><stop offset="0%" stop-color="#a2b6df"></stop> <stop offset="100%" stop-color="#0c3483"></stop></linearGradient><linearGradient id="103" x1="0%" y1="0%" x2="100%" y2="0%"><stop offset="0%" stop-color="#7ac5d8"></stop> <stop offset="100%" stop-color="#eea2a2"></stop></linearGradient><linearGradient id="104" x1="0%" y1="0%" x2="100%" y2="0%"><stop offset="0%" stop-color="#00ecbc"></stop> <stop offset="100%" stop-color="#007adf"></stop></linearGradient><linearGradient id="105" x1="0%" y1="0%" x2="100%" y2="0%"><stop offset="0%" stop-color="#b88746"></stop> <stop offset="100%" stop-color="#fdf5a6"></stop></linearGradient></defs><g fill="#333" class="icon-text-wrapper icon-svg-group iconsvg" transform="translate(48.342384338378906,93.90269470214844)"><g class="iconsvg-imagesvg" transform="translate(0,0)"><g><rect fill="#333" fill-opacity="0" stroke-width="2" x="0" y="0" width="60.015222951923334" height="60.015222951923334" class="image-rect"></rect> <svg filter="url(#colors1821708783)" x="0" y="0" width="60.015222951923334" height="60.015222951923334" filtersec="colorsf9951780623" class="image-svg-svg primary" style="overflow: visible;"><svg xmlns="http://www.w3.org/2000/svg" xmlns:xlink="http://www.w3.org/1999/xlink" version="1.1" x="0px" y="0px" viewBox="0 0 512 512" enable-background="new 0 0 512 512" xml:space="preserve"><path fill-rule="evenodd" clip-rule="evenodd" d="M107.297,309.859c-7.648,4.414-17.445,1.797-21.852-5.852  c-0.273-0.477-0.445-0.969-0.664-1.445C71.609,279.352,63.992,252.594,63.992,224c0-58.586,31.633-109.68,78.586-137.547  c0.477-0.336,0.898-0.711,1.43-1.016c7.648-4.414,17.422-1.797,21.852,5.859c4.414,7.648,1.805,17.438-5.852,21.852h-0.016  l0.047,0.086C121.789,135.359,96,176.633,96,224c0,23.328,6.344,45.117,17.242,63.953L113.156,288  C117.562,295.656,114.953,305.438,107.297,309.859L107.297,309.859z M224,95.992c-8.844,0-16-7.164-16-15.984  C208,71.164,215.156,64,224,64s16,7.164,16,16.008C240,88.828,232.844,95.992,224,95.992L224,95.992z M493.256,493.25  c-25,25-65.523,25-90.5,0l-42.865-42.844c-29.422-29.422-28.203-52.555-14.578-73.094l0,0c47.752-47.752,70.68-92.141,70.68-153.312  c0-106.031-85.945-192-191.992-192S32.008,117.969,32.008,224c0,106.039,85.945,192.008,191.992,192.008c8.844,0,16,7.164,16,15.984  c0,8.844-7.156,16.008-16,16.008C100.289,448,0,347.703,0,224C0,100.281,100.289,0,224,0c61.852,0,117.852,25.062,158.398,65.602  c5.273,5.273,10.195,10.773,14.844,16.43c2.008,2.438,3.766,5.07,5.688,7.594c2.508,3.328,5.07,6.641,7.383,10.062  c2.055,3.078,3.883,6.312,5.781,9.508c1.836,3.055,3.75,6.055,5.438,9.18c1.812,3.359,3.336,6.891,4.984,10.367  c1.492,3.164,3.094,6.297,4.414,9.508c1.391,3.359,2.531,6.836,3.766,10.281c1.242,3.445,2.562,6.906,3.633,10.406  c1.07,3.508,1.883,7.125,2.766,10.703c0.867,3.5,1.867,6.977,2.562,10.5c0.812,4.109,1.305,8.336,1.898,12.531  c0.445,3.047,1.023,6.109,1.328,9.172C447.594,209.125,448,216.531,448,224c0,6.422-0.375,12.859-0.914,19.273  c-0.172,1.883-0.391,3.734-0.594,5.602c-0.547,4.906-1.242,9.773-2.109,14.641c-0.305,1.664-0.555,3.359-0.898,5.008  c-1.234,6.195-2.734,12.32-4.492,18.383c-0.414,1.391-0.898,2.742-1.344,4.141c-1.461,4.641-3.07,9.266-4.852,13.844  c-0.883,2.289-1.797,4.562-2.766,6.805c-1.664,3.914-3.516,7.82-5.43,11.68c-1.398,2.812-2.82,5.594-4.328,8.344  c-9.977,18.156-22.484,35.281-37.875,50.672c-18.17,18.17-17.394,27.864,0,45.258l42.57,42.578  c12.492,12.492,32.758,12.492,45.266,0c12.484-12.492,12.484-32.758,0-45.258l-34.094-34.094c-0.141-0.141-0.328-0.172-0.461-0.305  c-6.242-6.258-6.242-16.398,0-22.641c6.266-6.242,16.391-6.242,22.641,0c0.047,0.055,0.047,0.102,0.102,0.156l0.086-0.086  l34.748,34.75C518.248,427.75,518.248,468.273,493.256,493.25L493.256,493.25z M287.992,416.008c8.844,0,16,7.164,16,15.984  c0,8.844-7.156,16.008-16,16.008c-8.82,0-15.984-7.164-15.984-16.008C272.008,423.172,279.172,416.008,287.992,416.008  L287.992,416.008z"></path></svg></svg> <defs><filter id="colors1821708783"><feColorMatrix type="matrix" values="0 0 0 0 0.19921875  0 0 0 0 0.19921875  0 0 0 0 0.19921875  0 0 0 1 0" class="icon-feColorMatrix "></feColorMatrix></filter> <filter id="colorsf9951780623"><feColorMatrix type="matrix" values="0 0 0 0 0.99609375  0 0 0 0 0.99609375  0 0 0 0 0.99609375  0 0 0 1 0" class="icon-fecolormatrix"></feColorMatrix></filter> <filter id="colorsb7423494376"><feColorMatrix type="matrix" values="0 0 0 0 0  0 0 0 0 0  0 0 0 0 0  0 0 0 1 0" class="icon-fecolormatrix"></feColorMatrix></filter></defs></g></g> <g transform="translate(67.01522445678711,2.8206138610839844)"><g fill-rule="" class="tp-name iconsvg-namesvg" transform="translate(0,0)"><g transform="scale(1)"><g><path d="M22.14-8.82L22.14-8.82Q22.14-6.12 20.77-4.02 19.4-1.93 16.81-0.77 14.23 0.4 10.75 0.4L10.75 0.4Q7.85 0.4 5.88-0.01 3.92-0.42 1.79-1.43L1.79-1.43 1.79-8.43Q4.03-7.27 6.46-6.63 8.88-5.98 10.91-5.98L10.91-5.98Q12.66-5.98 13.47-6.59 14.29-7.19 14.29-8.15L14.29-8.15Q14.29-8.74 13.96-9.19 13.63-9.64 12.91-10.1 12.18-10.55 9.04-11.96L9.04-11.96Q6.2-13.26 4.78-14.47 3.36-15.68 2.67-17.25 1.99-18.82 1.99-20.97L1.99-20.97Q1.99-24.98 4.91-27.23 7.83-29.47 12.94-29.47L12.94-29.47Q17.45-29.47 22.14-27.39L22.14-27.39 19.74-21.32Q15.66-23.19 12.7-23.19L12.7-23.19Q11.17-23.19 10.47-22.66 9.78-22.12 9.78-21.32L9.78-21.32Q9.78-20.47 10.66-19.79 11.55-19.12 15.46-17.33L15.46-17.33Q19.22-15.64 20.68-13.7 22.14-11.77 22.14-8.82ZM36.43 0.4L36.43 0.4Q30.9 0.4 28.05-2.58 25.2-5.56 25.2-11.15L25.2-11.15Q25.2-16.75 28.28-19.83 31.36-22.91 37.05-22.91L37.05-22.91Q40.96-22.91 44.42-21.21L44.42-21.21 42.13-15.46Q40.72-16.08 39.53-16.45 38.34-16.81 37.05-16.81L37.05-16.81Q35.16-16.81 34.12-15.34 33.09-13.87 33.09-11.19L33.09-11.19Q33.09-5.78 37.09-5.78L37.09-5.78Q40.5-5.78 43.64-7.77L43.64-7.77 43.64-1.59Q40.64 0.4 36.43 0.4ZM69.62-11.31L69.62-11.31Q69.62-5.78 66.65-2.69 63.68 0.4 58.33 0.4L58.33 0.4Q53.2 0.4 50.17-2.76 47.14-5.92 47.14-11.31L47.14-11.31Q47.14-16.81 50.11-19.86 53.08-22.91 58.45-22.91L58.45-22.91Q61.77-22.91 64.31-21.5 66.86-20.09 68.24-17.46 69.62-14.83 69.62-11.31ZM55.03-11.31L55.03-11.31Q55.03-8.41 55.81-6.89 56.58-5.37 58.41-5.37L58.41-5.37Q60.22-5.37 60.96-6.89 61.71-8.41 61.71-11.31L61.71-11.31Q61.71-14.19 60.95-15.66 60.2-17.13 58.37-17.13L58.37-17.13Q56.58-17.13 55.81-15.67 55.03-14.21 55.03-11.31ZM87.57 0.4L87.57 0.4Q85.86 0.4 84.5-0.17 83.15-0.74 81.82-2.21L81.82-2.21 81.46-2.21Q81.82 0.16 81.82 0.74L81.82 0.74 81.82 9.78 74.05 9.78 74.05-22.52 80.37-22.52 81.46-19.66 81.82-19.66Q83.99-22.91 87.8-22.91L87.8-22.91Q91.54-22.91 93.67-19.81 95.79-16.71 95.79-11.31L95.79-11.31Q95.79-5.86 93.58-2.73 91.36 0.4 87.57 0.4ZM84.96-16.81L84.96-16.81Q83.25-16.81 82.57-15.59 81.88-14.37 81.82-11.96L81.82-11.96 81.82-11.35Q81.82-8.45 82.6-7.15 83.37-5.86 85.04-5.86L85.04-5.86Q86.53-5.86 87.21-7.14 87.88-8.43 87.88-11.39L87.88-11.39Q87.88-14.29 87.21-15.55 86.53-16.81 84.96-16.81ZM111.1 0.4L111.1 0.4Q105.47 0.4 102.36-2.59 99.25-5.58 99.25-11.11L99.25-11.11Q99.25-16.81 102.13-19.86 105.01-22.91 110.36-22.91L110.36-22.91Q115.45-22.91 118.22-20.26 120.99-17.61 120.99-12.62L120.99-12.62 120.99-9.16 107.1-9.16Q107.18-7.27 108.48-6.2 109.78-5.13 112.03-5.13L112.03-5.13Q114.08-5.13 115.8-5.52 117.52-5.9 119.52-6.84L119.52-6.84 119.52-1.25Q117.69-0.32 115.75 0.04 113.8 0.4 111.1 0.4ZM110.64-17.63L110.64-17.63Q109.27-17.63 108.34-16.76 107.42-15.9 107.26-14.05L107.26-14.05 113.94-14.05Q113.9-15.68 113.01-16.65 112.13-17.63 110.64-17.63ZM150.51-15.14L150.51-15.14Q150.51-7.87 146.5-3.94 142.5 0 135.24 0L135.24 0 125.84 0 125.84-29.06 135.9-29.06Q142.89-29.06 146.7-25.48 150.51-21.9 150.51-15.14ZM142.36-14.87L142.36-14.87Q142.36-18.86 140.78-20.79 139.2-22.72 135.98-22.72L135.98-22.72 133.69-22.72 133.69-6.44 135.44-6.44Q139.02-6.44 140.69-8.52 142.36-10.59 142.36-14.87ZM155.71 0L155.71-29.06 165.85-29.06Q171.77-29.06 174.64-27.3 177.52-25.54 177.52-21.82L177.52-21.82Q177.52-19.38 176.26-17.65 175.01-15.92 172.96-15.42L172.96-15.42 172.96-15.22Q175.67-14.51 176.88-12.84 178.09-11.17 178.09-8.51L178.09-8.51Q178.09-4.55 175.12-2.28 172.15 0 167.02 0L167.02 0 155.71 0ZM163.56-23.11L163.56-17.91 165.93-17.91Q167.62-17.91 168.54-18.6 169.47-19.3 169.47-20.67L169.47-20.67Q169.47-23.11 165.77-23.11L165.77-23.11 163.56-23.11ZM166.17-12.16L163.56-12.16 163.56-6.06 166.33-6.06Q170-6.06 170-9.16L170-9.16Q170-10.61 169.02-11.39 168.04-12.16 166.17-12.16L166.17-12.16Z" transform="translate(-1.7899999618530273, 29.469999313354492)"></path></g> </g></g> <g fill-rule="" class="tp-slogan iconsvg-slogansvg" fill="#333" transform="translate(0.39499664306640625,50.25)"> <g transform="scale(1, 1)"><g transform="scale(1)"><path d="M4.45 0.16L4.45 0.16Q2.77 0.16 1.75-1.08L1.75-1.08Q0.70-2.34 0.70-4.43Q0.70-6.52 1.75-7.75L1.75-7.75Q2.77-8.96 4.45-8.96L4.45-8.96Q6.13-8.96 7.16-7.75L7.16-7.75Q8.21-6.52 8.21-4.42Q8.21-2.33 7.16-1.08L7.16-1.08Q6.12 0.16 4.45 0.16ZM4.45-0.82L4.45-0.82Q5.64-0.82 6.35-1.80Q7.07-2.78 7.07-4.43Q7.07-6.07 6.35-7.03Q5.64-7.99 4.45-7.99L4.45-7.99Q3.25-7.99 2.54-7.03Q1.84-6.07 1.84-4.43Q1.84-2.78 2.56-1.80Q3.28-0.82 4.45-0.82ZM12.91 0L10.76 0Q10.46 0 10.28-0.18Q10.10-0.36 10.10-0.66L10.10-0.66L10.10-8.10Q10.10-8.41 10.30-8.60Q10.49-8.80 10.80-8.80L10.80-8.80L12.72-8.80Q15.74-8.80 15.74-6.65L15.74-6.65Q15.74-5.98 15.41-5.46L15.41-5.46Q15.06-4.93 14.45-4.74L14.45-4.74L14.45-4.68Q15.28-4.52 15.74-4.01L15.74-4.01Q16.25-3.44 16.25-2.58L16.25-2.58Q16.25-1.32 15.32-0.65L15.32-0.65Q14.44 0 12.91 0L12.91 0ZM11.22-4.20L11.22-0.89L12.76-0.89Q15.16-0.89 15.16-2.62L15.16-2.62Q15.16-4.20 12.76-4.20L12.76-4.20L11.22-4.20ZM11.22-7.92L11.22-5.05L12.53-5.05Q14.65-5.05 14.65-6.50L14.65-6.50Q14.65-7.26 14.12-7.60L14.12-7.60Q13.63-7.92 12.58-7.92L12.58-7.92L11.22-7.92ZM20.44 0.16L20.44 0.16Q18.88 0.16 17.70-0.83L17.70-0.83Q17.36-1.15 17.66-1.51L17.66-1.51Q18.01-1.91 18.42-1.54L18.42-1.54Q19.37-0.82 20.45-0.82L20.45-0.82Q21.30-0.82 21.80-1.21Q22.30-1.60 22.30-2.26L22.30-2.26Q22.30-2.87 21.88-3.24L21.88-3.24Q21.61-3.47 20.83-3.82L20.83-3.82L19.56-4.37Q17.77-5.14 17.77-6.62L17.77-6.62Q17.77-7.64 18.56-8.30Q19.34-8.96 20.54-8.96L20.54-8.96Q21.82-8.96 22.84-8.15L22.84-8.15Q23.14-7.87 22.86-7.54L22.86-7.54Q22.55-7.16 22.18-7.46L22.18-7.46Q21.43-7.99 20.54-7.99L20.54-7.99Q19.80-7.99 19.35-7.64Q18.90-7.28 18.90-6.70L18.90-6.70Q18.90-6.13 19.37-5.75L19.37-5.75Q19.64-5.53 20.35-5.23L20.35-5.23L21.61-4.69Q22.49-4.31 22.90-3.84L22.90-3.84Q23.42-3.25 23.42-2.34L23.42-2.34Q23.42-1.27 22.62-0.58L22.62-0.58Q21.78 0.16 20.44 0.16ZM29.89 0L25.85 0Q25.54 0 25.34-0.19Q25.15-0.38 25.15-0.70L25.15-0.70L25.15-8.10Q25.15-8.41 25.34-8.60Q25.54-8.80 25.85-8.80L25.85-8.80L29.76-8.80Q30.23-8.80 30.23-8.33Q30.23-7.86 29.76-7.86L29.76-7.86L26.27-7.86L26.27-5.10L29.14-5.10Q29.60-5.10 29.60-4.63L29.60-4.63Q29.60-4.15 29.14-4.15L29.14-4.15L26.27-4.15L26.27-0.95L29.89-0.95Q30.36-0.95 30.36-0.48L30.36-0.48Q30.36 0 29.89 0L29.89 0ZM32.77 0L32.77 0Q32.21 0 32.21-0.55L32.21-0.55L32.21-8.10Q32.21-8.41 32.40-8.60Q32.59-8.80 32.90-8.80L32.90-8.80L34.97-8.80Q38.04-8.80 38.04-6.32L38.04-6.32Q38.04-5.33 37.50-4.68L37.50-4.68Q36.98-4.08 36.05-3.85L36.05-3.85L37.93-0.65Q38.10-0.35 38.00-0.17Q37.90 0 37.56 0L37.56 0L37.52 0Q37.31 0 37.11-0.11Q36.91-0.23 36.80-0.42L36.80-0.42L34.91-3.73L33.32-3.73L33.32-0.55Q33.32 0 32.77 0ZM33.32-7.90L33.32-4.63L34.80-4.63Q36.94-4.63 36.94-6.32L36.94-6.32Q36.94-7.16 36.38-7.55L36.38-7.55Q35.88-7.90 34.80-7.90L34.80-7.90L33.32-7.90ZM42.17 0L41.72 0Q41.45 0 41.36-0.26L41.36-0.26L38.86-8.14Q38.64-8.80 39.34-8.80L39.34-8.80Q39.82-8.80 39.94-8.35L39.94-8.35L41.23-4.03Q41.36-3.61 41.58-2.83L41.58-2.83Q41.88-1.74 42.08-1.13L42.08-1.13L42.13-1.13Q42.31-1.70 42.61-2.76L42.61-2.76Q42.85-3.58 42.98-4.03L42.98-4.03L44.27-8.35Q44.40-8.80 44.86-8.80L44.86-8.80Q45.53-8.80 45.32-8.15L45.32-8.15L42.90-0.54Q42.73 0 42.17 0L42.17 0ZM46.25 0L46.25 0Q45.56 0 45.78-0.65L45.78-0.65L48.37-8.27Q48.46-8.51 48.65-8.65Q48.85-8.80 49.10-8.80L49.10-8.80L49.24-8.80Q49.49-8.80 49.69-8.65Q49.88-8.51 49.97-8.27L49.97-8.27L52.55-0.67Q52.79 0 52.07 0L52.07 0Q51.60 0 51.46-0.46L51.46-0.46L50.76-2.69L47.54-2.69L46.82-0.43Q46.70 0 46.25 0ZM48.25-4.92L47.82-3.58L50.48-3.58L50.06-4.92Q49.70-6.04 49.18-7.90L49.18-7.90L49.13-7.90Q48.80-6.67 48.25-4.92L48.25-4.92ZM56.82 0L54.67 0Q54.37 0 54.19-0.18Q54.01-0.36 54.01-0.66L54.01-0.66L54.01-8.10Q54.01-8.41 54.20-8.60Q54.40-8.80 54.71-8.80L54.71-8.80L56.63-8.80Q59.65-8.80 59.65-6.65L59.65-6.65Q59.65-5.98 59.32-5.46L59.32-5.46Q58.97-4.93 58.36-4.74L58.36-4.74L58.36-4.68Q59.18-4.52 59.65-4.01L59.65-4.01Q60.16-3.44 60.16-2.58L60.16-2.58Q60.16-1.32 59.23-0.65L59.23-0.65Q58.34 0 56.82 0L56.82 0ZM55.13-4.20L55.13-0.89L56.66-0.89Q59.06-0.89 59.06-2.62L59.06-2.62Q59.06-4.20 56.66-4.20L56.66-4.20L55.13-4.20ZM55.13-7.92L55.13-5.05L56.44-5.05Q58.56-5.05 58.56-6.50L58.56-6.50Q58.56-7.26 58.03-7.60L58.03-7.60Q57.54-7.92 56.48-7.92L56.48-7.92L55.13-7.92ZM62.46 0L62.46 0Q61.90 0 61.90-0.55L61.90-0.55L61.90-8.24Q61.90-8.80 62.46-8.80L62.46-8.80Q63.01-8.80 63.01-8.24L63.01-8.24L63.01-0.55Q63.01 0 62.46 0ZM69.90 0L66.11 0Q65.80 0 65.60-0.19Q65.41-0.38 65.41-0.70L65.41-0.70L65.41-8.24Q65.41-8.80 65.98-8.80L65.98-8.80Q66.53-8.80 66.53-8.24L66.53-8.24L66.53-0.95L69.90-0.95Q70.37-0.95 70.37-0.48L70.37-0.48Q70.37 0 69.90 0L69.90 0ZM72.48 0L72.48 0Q71.92 0 71.92-0.55L71.92-0.55L71.92-8.24Q71.92-8.80 72.48-8.80L72.48-8.80Q73.03-8.80 73.03-8.24L73.03-8.24L73.03-0.55Q73.03 0 72.48 0ZM77.83 0L77.83 0Q77.27 0 77.27-0.55L77.27-0.55L77.27-7.86L75.07-7.86Q74.60-7.86 74.60-8.33Q74.60-8.80 75.07-8.80L75.07-8.80L80.58-8.80Q81.05-8.80 81.05-8.33Q81.05-7.86 80.58-7.86L80.58-7.86L78.38-7.86L78.38-0.55Q78.38 0 77.83 0ZM84.61 0L84.61 0Q84.05 0 84.05-0.55L84.05-0.55L84.05-3.42L81.74-8.11Q81.40-8.80 82.16-8.80L82.16-8.80Q82.60-8.80 82.78-8.40L82.78-8.40L83.72-6.31Q83.80-6.16 83.92-5.87L83.92-5.87Q84.35-4.90 84.59-4.39L84.59-4.39L84.64-4.39Q84.68-4.50 84.79-4.73L84.79-4.73Q85.30-5.77 85.51-6.31L85.51-6.31L86.48-8.42Q86.66-8.80 87.06-8.80L87.06-8.80Q87.80-8.80 87.48-8.14L87.48-8.14L86.48-6.11L85.16-3.42L85.16-0.55Q85.16 0 84.61 0ZM94.22 0L92.50 0Q92.26 0 92.11-0.14Q91.97-0.29 91.97-0.53L91.97-0.53L91.97-8.10Q91.97-8.41 92.16-8.60Q92.35-8.80 92.66-8.80L92.66-8.80L94.18-8.80Q96.19-8.80 97.26-7.66Q98.33-6.53 98.33-4.43Q98.33-2.33 97.27-1.18L97.27-1.18Q96.20 0 94.22 0L94.22 0ZM93.08-7.90L93.08-0.91L94.08-0.91Q95.62-0.91 96.41-1.84L96.41-1.84Q97.18-2.74 97.18-4.43Q97.18-6.12 96.41-7.00L96.41-7.00Q95.62-7.90 94.08-7.90L94.08-7.90L93.08-7.90ZM99.73 0L99.73 0Q99.05 0 99.26-0.65L99.26-0.65L101.86-8.27Q101.94-8.51 102.14-8.65Q102.34-8.80 102.59-8.80L102.59-8.80L102.72-8.80Q102.97-8.80 103.17-8.65Q103.37-8.51 103.45-8.27L103.45-8.27L106.03-0.67Q106.27 0 105.55 0L105.55 0Q105.08 0 104.94-0.46L104.94-0.46L104.24-2.69L101.03-2.69L100.31-0.43Q100.19 0 99.73 0ZM101.74-4.92L101.30-3.58L103.97-3.58L103.55-4.92Q103.19-6.04 102.66-7.90L102.66-7.90L102.61-7.90Q102.29-6.67 101.74-4.92L101.74-4.92ZM109.90 0L109.90 0Q109.33 0 109.33-0.55L109.33-0.55L109.33-7.86L107.14-7.86Q106.67-7.86 106.67-8.33Q106.67-8.80 107.14-8.80L107.14-8.80L112.64-8.80Q113.11-8.80 113.11-8.33Q113.11-7.86 112.64-7.86L112.64-7.86L110.45-7.86L110.45-0.55Q110.45 0 109.90 0ZM114.20 0L114.20 0Q113.52 0 113.74-0.65L113.74-0.65L116.33-8.27Q116.41-8.51 116.61-8.65Q116.81-8.80 117.06-8.80L117.06-8.80L117.19-8.80Q117.44-8.80 117.64-8.65Q117.84-8.51 117.92-8.27L117.92-8.27L120.50-0.67Q120.74 0 120.02 0L120.02 0Q119.56 0 119.41-0.46L119.41-0.46L118.72-2.69L115.50-2.69L114.78-0.43Q114.66 0 114.20 0ZM116.21-4.92L115.78-3.58L118.44-3.58L118.02-4.92Q117.66-6.04 117.13-7.90L117.13-7.90L117.08-7.90Q116.76-6.67 116.21-4.92L116.21-4.92ZM124.46 0L124.46 0Q123.78 0 124.00-0.65L124.00-0.65L126.59-8.27Q126.67-8.51 126.87-8.65Q127.07-8.80 127.32-8.80L127.32-8.80L127.45-8.80Q127.70-8.80 127.90-8.65Q128.10-8.51 128.18-8.27L128.18-8.27L130.76-0.67Q131.00 0 130.28 0L130.28 0Q129.82 0 129.67-0.46L129.67-0.46L128.98-2.69L125.76-2.69L125.04-0.43Q124.92 0 124.46 0ZM126.47-4.92L126.04-3.58L128.70-3.58L128.28-4.92Q127.92-6.04 127.39-7.90L127.39-7.90L127.34-7.90Q127.02-6.67 126.47-4.92L126.47-4.92ZM134.63 0L134.63 0Q134.06 0 134.06-0.55L134.06-0.55L134.06-7.86L131.87-7.86Q131.40-7.86 131.40-8.33Q131.40-8.80 131.87-8.80L131.87-8.80L137.38-8.80Q137.84-8.80 137.84-8.33Q137.84-7.86 137.38-7.86L137.38-7.86L135.18-7.86L135.18-0.55Q135.18 0 134.63 0ZM144.84 0.16L144.84 0.16Q143.28 0.16 142.10-0.83L142.10-0.83Q141.77-1.15 142.07-1.51L142.07-1.51Q142.42-1.91 142.82-1.54L142.82-1.54Q143.77-0.82 144.85-0.82L144.85-0.82Q145.70-0.82 146.20-1.21Q146.70-1.60 146.70-2.26L146.70-2.26Q146.70-2.87 146.28-3.24L146.28-3.24Q146.02-3.47 145.24-3.82L145.24-3.82L143.96-4.37Q142.18-5.14 142.18-6.62L142.18-6.62Q142.18-7.64 142.96-8.30Q143.75-8.96 144.95-8.96L144.95-8.96Q146.22-8.96 147.24-8.15L147.24-8.15Q147.54-7.87 147.26-7.54L147.26-7.54Q146.95-7.16 146.58-7.46L146.58-7.46Q145.84-7.99 144.95-7.99L144.95-7.99Q144.20-7.99 143.75-7.64Q143.30-7.28 143.30-6.70L143.30-6.70Q143.30-6.13 143.77-5.75L143.77-5.75Q144.05-5.53 144.76-5.23L144.76-5.23L146.02-4.69Q146.89-4.31 147.30-3.84L147.30-3.84Q147.83-3.25 147.83-2.34L147.83-2.34Q147.83-1.27 147.02-0.58L147.02-0.58Q146.18 0.16 144.84 0.16ZM152.88 0.16L152.88 0.16Q151.20 0.16 150.14-1.04L150.14-1.04Q149.05-2.29 149.05-4.39Q149.05-6.49 150.17-7.74L150.17-7.74Q151.25-8.96 152.95-8.96L152.95-8.96Q154.16-8.96 155.10-8.14L155.10-8.14Q155.36-7.87 155.09-7.55L155.09-7.55Q154.76-7.15 154.39-7.50L154.39-7.50Q153.74-7.99 152.96-7.99L152.96-7.99Q151.70-7.99 150.95-7.03Q150.19-6.06 150.19-4.43L150.19-4.43Q150.19-2.76 150.93-1.79Q151.67-0.82 152.93-0.82L152.93-0.82Q153.84-0.82 154.60-1.44L154.60-1.44Q154.97-1.81 155.30-1.43L155.30-1.43Q155.58-1.12 155.28-0.79L155.28-0.79Q154.27 0.16 152.88 0.16ZM156.73 0L156.73 0Q156.05 0 156.26-0.65L156.26-0.65L158.86-8.27Q158.94-8.51 159.14-8.65Q159.34-8.80 159.59-8.80L159.59-8.80L159.72-8.80Q159.97-8.80 160.17-8.65Q160.37-8.51 160.45-8.27L160.45-8.27L163.03-0.67Q163.27 0 162.55 0L162.55 0Q162.08 0 161.94-0.46L161.94-0.46L161.24-2.69L158.03-2.69L157.31-0.43Q157.19 0 156.73 0ZM158.74-4.92L158.30-3.58L160.97-3.58L160.55-4.92Q160.19-6.04 159.66-7.90L159.66-7.90L159.61-7.90Q159.29-6.67 158.74-4.92L158.74-4.92ZM168.98 0L165.19 0Q164.88 0 164.69-0.19Q164.50-0.38 164.50-0.70L164.50-0.70L164.50-8.24Q164.50-8.80 165.06-8.80L165.06-8.80Q165.61-8.80 165.61-8.24L165.61-8.24L165.61-0.95L168.98-0.95Q169.45-0.95 169.45-0.48L169.45-0.48Q169.45 0 168.98 0L168.98 0ZM175.74 0L171.70 0Q171.38 0 171.19-0.19Q171.00-0.38 171.00-0.70L171.00-0.70L171.00-8.10Q171.00-8.41 171.19-8.60Q171.38-8.80 171.70-8.80L171.70-8.80L175.61-8.80Q176.08-8.80 176.08-8.33Q176.08-7.86 175.61-7.86L175.61-7.86L172.12-7.86L172.12-5.10L174.98-5.10Q175.45-5.10 175.45-4.63L175.45-4.63Q175.45-4.15 174.98-4.15L174.98-4.15L172.12-4.15L172.12-0.95L175.74-0.95Q176.21-0.95 176.21-0.48L176.21-0.48Q176.21 0 175.74 0L175.74 0Z" transform="translate(-0.6960000000000001, 8.964)"></path></g></g></g></g></g><defs v-gra="od"></defs></g></svg>