
<svg
  version="1.0"
  xmlns="http://www.w3.org/2000/svg"
  xmlns:xlink="http://www.w3.org/1999/xlink"
  width="2400"
  height="1800"
>
  
  <rect
    x="0"
    y="0"
    width="100%"
    height="100%"
    fill="#ffffff"
    fill-opacity="1"
  ></rect>
  <svg
    version="1.0"
    xmlns="http://www.w3.org/2000/svg"
    xmlns:xlink="http://www.w3.org/1999/xlink"
    x="0"
    y="0"
    width="2400"
    height="1800"
    viewBox="0 0 340.000000 250.000000"
    preserveAspectRatio="xMidYMid meet"
    color-interpolation-filters="sRGB"
  >
    <defs><linearGradient id="92" x1="0%" y1="0%" x2="100%" y2="0%"><stop offset="0%" stop-color="#fa71cd"/> <stop offset="100%" stop-color="#9b59b6"/></linearGradient><linearGradient id="93" x1="0%" y1="0%" x2="100%" y2="0%"><stop offset="0%" stop-color="#f9d423"/> <stop offset="100%" stop-color="#f83600"/></linearGradient><linearGradient id="94" x1="0%" y1="0%" x2="100%" y2="0%"><stop offset="0%" stop-color="#0064d2"/> <stop offset="100%" stop-color="#1cb0f6"/></linearGradient><linearGradient id="95" x1="0%" y1="0%" x2="100%" y2="0%"><stop offset="0%" stop-color="#f00978"/> <stop offset="100%" stop-color="#3f51b1"/></linearGradient><linearGradient id="96" x1="0%" y1="0%" x2="100%" y2="0%"><stop offset="0%" stop-color="#7873f5"/> <stop offset="100%" stop-color="#ec77ab"/></linearGradient><linearGradient id="97" x1="0%" y1="0%" x2="100%" y2="0%"><stop offset="0%" stop-color="#f9d423"/> <stop offset="100%" stop-color="#e14fad"/></linearGradient><linearGradient id="98" x1="0%" y1="0%" x2="100%" y2="0%"><stop offset="0%" stop-color="#009efd"/> <stop offset="100%" stop-color="#2af598"/></linearGradient><linearGradient id="99" x1="0%" y1="0%" x2="100%" y2="0%"><stop offset="0%" stop-color="#ffcc00"/> <stop offset="100%" stop-color="#00b140"/></linearGradient><linearGradient id="100" x1="0%" y1="0%" x2="100%" y2="0%"><stop offset="0%" stop-color="#d51007"/> <stop offset="100%" stop-color="#ff8177"/></linearGradient><linearGradient id="102" x1="0%" y1="0%" x2="100%" y2="0%"><stop offset="0%" stop-color="#a2b6df"/> <stop offset="100%" stop-color="#0c3483"/></linearGradient><linearGradient id="103" x1="0%" y1="0%" x2="100%" y2="0%"><stop offset="0%" stop-color="#7ac5d8"/> <stop offset="100%" stop-color="#eea2a2"/></linearGradient><linearGradient id="104" x1="0%" y1="0%" x2="100%" y2="0%"><stop offset="0%" stop-color="#00ecbc"/> <stop offset="100%" stop-color="#007adf"/></linearGradient><linearGradient id="105" x1="0%" y1="0%" x2="100%" y2="0%"><stop offset="0%" stop-color="#b88746"/> <stop offset="100%" stop-color="#fdf5a6"/></linearGradient></defs> <g fill="#333" class="icon-text-wrapper icon-svg-group iconsvg" transform="translate(48.342384338378906,94.99238777160645)"><g class="iconsvg-imagesvg" transform="translate(0,0)"><g><rect fill="#333" fill-opacity="0" stroke-width="2" x="0" y="0" width="60.015222951923334" height="60.015222951923334" class="image-rect"/> <svg filter="url(#colors1476096866)" x="0" y="0" width="60.015222951923334" height="60.015222951923334" filtersec="colorsf2651186973" class="image-svg-svg primary" style="overflow: visible;"><svg xmlns="http://www.w3.org/2000/svg" xmlns:xlink="http://www.w3.org/1999/xlink" version="1.1" x="0px" y="0px" viewBox="0 0 512 512" enable-background="new 0 0 512 512" xml:space="preserve"><path fill-rule="evenodd" clip-rule="evenodd" d="M107.297,309.859c-7.648,4.414-17.445,1.797-21.852-5.852  c-0.273-0.477-0.445-0.969-0.664-1.445C71.609,279.352,63.992,252.594,63.992,224c0-58.586,31.633-109.68,78.586-137.547  c0.477-0.336,0.898-0.711,1.43-1.016c7.648-4.414,17.422-1.797,21.852,5.859c4.414,7.648,1.805,17.438-5.852,21.852h-0.016  l0.047,0.086C121.789,135.359,96,176.633,96,224c0,23.328,6.344,45.117,17.242,63.953L113.156,288  C117.562,295.656,114.953,305.438,107.297,309.859L107.297,309.859z M224,95.992c-8.844,0-16-7.164-16-15.984  C208,71.164,215.156,64,224,64s16,7.164,16,16.008C240,88.828,232.844,95.992,224,95.992L224,95.992z M493.256,493.25  c-25,25-65.523,25-90.5,0l-42.865-42.844c-29.422-29.422-28.203-52.555-14.578-73.094l0,0c47.752-47.752,70.68-92.141,70.68-153.312  c0-106.031-85.945-192-191.992-192S32.008,117.969,32.008,224c0,106.039,85.945,192.008,191.992,192.008c8.844,0,16,7.164,16,15.984  c0,8.844-7.156,16.008-16,16.008C100.289,448,0,347.703,0,224C0,100.281,100.289,0,224,0c61.852,0,117.852,25.062,158.398,65.602  c5.273,5.273,10.195,10.773,14.844,16.43c2.008,2.438,3.766,5.07,5.688,7.594c2.508,3.328,5.07,6.641,7.383,10.062  c2.055,3.078,3.883,6.312,5.781,9.508c1.836,3.055,3.75,6.055,5.438,9.18c1.812,3.359,3.336,6.891,4.984,10.367  c1.492,3.164,3.094,6.297,4.414,9.508c1.391,3.359,2.531,6.836,3.766,10.281c1.242,3.445,2.562,6.906,3.633,10.406  c1.07,3.508,1.883,7.125,2.766,10.703c0.867,3.5,1.867,6.977,2.562,10.5c0.812,4.109,1.305,8.336,1.898,12.531  c0.445,3.047,1.023,6.109,1.328,9.172C447.594,209.125,448,216.531,448,224c0,6.422-0.375,12.859-0.914,19.273  c-0.172,1.883-0.391,3.734-0.594,5.602c-0.547,4.906-1.242,9.773-2.109,14.641c-0.305,1.664-0.555,3.359-0.898,5.008  c-1.234,6.195-2.734,12.32-4.492,18.383c-0.414,1.391-0.898,2.742-1.344,4.141c-1.461,4.641-3.07,9.266-4.852,13.844  c-0.883,2.289-1.797,4.562-2.766,6.805c-1.664,3.914-3.516,7.82-5.43,11.68c-1.398,2.812-2.82,5.594-4.328,8.344  c-9.977,18.156-22.484,35.281-37.875,50.672c-18.17,18.17-17.394,27.864,0,45.258l42.57,42.578  c12.492,12.492,32.758,12.492,45.266,0c12.484-12.492,12.484-32.758,0-45.258l-34.094-34.094c-0.141-0.141-0.328-0.172-0.461-0.305  c-6.242-6.258-6.242-16.398,0-22.641c6.266-6.242,16.391-6.242,22.641,0c0.047,0.055,0.047,0.102,0.102,0.156l0.086-0.086  l34.748,34.75C518.248,427.75,518.248,468.273,493.256,493.25L493.256,493.25z M287.992,416.008c8.844,0,16,7.164,16,15.984  c0,8.844-7.156,16.008-16,16.008c-8.82,0-15.984-7.164-15.984-16.008C272.008,423.172,279.172,416.008,287.992,416.008  L287.992,416.008z"/></svg></svg> <defs><filter id="colors1476096866"><feColorMatrix type="matrix" values="0 0 0 0 0.19921875  0 0 0 0 0.19921875  0 0 0 0 0.19921875  0 0 0 1 0" class="icon-feColorMatrix "/></filter> <filter id="colorsf2651186973"><feColorMatrix type="matrix" values="0 0 0 0 0.99609375  0 0 0 0 0.99609375  0 0 0 0 0.99609375  0 0 0 1 0" class="icon-fecolormatrix"/></filter> <filter id="colorsb8882021333"><feColorMatrix type="matrix" values="0 0 0 0 0  0 0 0 0 0  0 0 0 0 0  0 0 0 1 0" class="icon-fecolormatrix"/></filter></defs></g></g> <g transform="translate(67.01522445678711,10.382612228393555)"><g fill-rule="" class="tp-name iconsvg-namesvg"><g transform="scale(1)"><g><path d="M22.14-8.82L22.14-8.82Q22.14-6.12 20.77-4.02 19.4-1.93 16.81-0.77 14.23 0.4 10.75 0.4L10.75 0.4Q7.85 0.4 5.88-0.01 3.92-0.42 1.79-1.43L1.79-1.43 1.79-8.43Q4.03-7.27 6.46-6.63 8.88-5.98 10.91-5.98L10.91-5.98Q12.66-5.98 13.47-6.59 14.29-7.19 14.29-8.15L14.29-8.15Q14.29-8.74 13.96-9.19 13.63-9.64 12.91-10.1 12.18-10.55 9.04-11.96L9.04-11.96Q6.2-13.26 4.78-14.47 3.36-15.68 2.67-17.25 1.99-18.82 1.99-20.97L1.99-20.97Q1.99-24.98 4.91-27.23 7.83-29.47 12.94-29.47L12.94-29.47Q17.45-29.47 22.14-27.39L22.14-27.39 19.74-21.32Q15.66-23.19 12.7-23.19L12.7-23.19Q11.17-23.19 10.47-22.66 9.78-22.12 9.78-21.32L9.78-21.32Q9.78-20.47 10.66-19.79 11.55-19.12 15.46-17.33L15.46-17.33Q19.22-15.64 20.68-13.7 22.14-11.77 22.14-8.82ZM36.43 0.4L36.43 0.4Q30.9 0.4 28.05-2.58 25.2-5.56 25.2-11.15L25.2-11.15Q25.2-16.75 28.28-19.83 31.36-22.91 37.05-22.91L37.05-22.91Q40.96-22.91 44.42-21.21L44.42-21.21 42.13-15.46Q40.72-16.08 39.53-16.45 38.34-16.81 37.05-16.81L37.05-16.81Q35.16-16.81 34.12-15.34 33.09-13.87 33.09-11.19L33.09-11.19Q33.09-5.78 37.09-5.78L37.09-5.78Q40.5-5.78 43.64-7.77L43.64-7.77 43.64-1.59Q40.64 0.4 36.43 0.4ZM69.62-11.31L69.62-11.31Q69.62-5.78 66.65-2.69 63.68 0.4 58.33 0.4L58.33 0.4Q53.2 0.4 50.17-2.76 47.14-5.92 47.14-11.31L47.14-11.31Q47.14-16.81 50.11-19.86 53.08-22.91 58.45-22.91L58.45-22.91Q61.77-22.91 64.31-21.5 66.86-20.09 68.24-17.46 69.62-14.83 69.62-11.31ZM55.03-11.31L55.03-11.31Q55.03-8.41 55.81-6.89 56.58-5.37 58.41-5.37L58.41-5.37Q60.22-5.37 60.96-6.89 61.71-8.41 61.71-11.31L61.71-11.31Q61.71-14.19 60.95-15.66 60.2-17.13 58.37-17.13L58.37-17.13Q56.58-17.13 55.81-15.67 55.03-14.21 55.03-11.31ZM87.57 0.4L87.57 0.4Q85.86 0.4 84.5-0.17 83.15-0.74 81.82-2.21L81.82-2.21 81.46-2.21Q81.82 0.16 81.82 0.74L81.82 0.74 81.82 9.78 74.05 9.78 74.05-22.52 80.37-22.52 81.46-19.66 81.82-19.66Q83.99-22.91 87.8-22.91L87.8-22.91Q91.54-22.91 93.67-19.81 95.79-16.71 95.79-11.31L95.79-11.31Q95.79-5.86 93.58-2.73 91.36 0.4 87.57 0.4ZM84.96-16.81L84.96-16.81Q83.25-16.81 82.57-15.59 81.88-14.37 81.82-11.96L81.82-11.96 81.82-11.35Q81.82-8.45 82.6-7.15 83.37-5.86 85.04-5.86L85.04-5.86Q86.53-5.86 87.21-7.14 87.88-8.43 87.88-11.39L87.88-11.39Q87.88-14.29 87.21-15.55 86.53-16.81 84.96-16.81ZM111.1 0.4L111.1 0.4Q105.47 0.4 102.36-2.59 99.25-5.58 99.25-11.11L99.25-11.11Q99.25-16.81 102.13-19.86 105.01-22.91 110.36-22.91L110.36-22.91Q115.45-22.91 118.22-20.26 120.99-17.61 120.99-12.62L120.99-12.62 120.99-9.16 107.1-9.16Q107.18-7.27 108.48-6.2 109.78-5.13 112.03-5.13L112.03-5.13Q114.08-5.13 115.8-5.52 117.52-5.9 119.52-6.84L119.52-6.84 119.52-1.25Q117.69-0.32 115.75 0.04 113.8 0.4 111.1 0.4ZM110.64-17.63L110.64-17.63Q109.27-17.63 108.34-16.76 107.42-15.9 107.26-14.05L107.26-14.05 113.94-14.05Q113.9-15.68 113.01-16.65 112.13-17.63 110.64-17.63ZM150.51-15.14L150.51-15.14Q150.51-7.87 146.5-3.94 142.5 0 135.24 0L135.24 0 125.84 0 125.84-29.06 135.9-29.06Q142.89-29.06 146.7-25.48 150.51-21.9 150.51-15.14ZM142.36-14.87L142.36-14.87Q142.36-18.86 140.78-20.79 139.2-22.72 135.98-22.72L135.98-22.72 133.69-22.72 133.69-6.44 135.44-6.44Q139.02-6.44 140.69-8.52 142.36-10.59 142.36-14.87ZM155.71 0L155.71-29.06 165.85-29.06Q171.77-29.06 174.64-27.3 177.52-25.54 177.52-21.82L177.52-21.82Q177.52-19.38 176.26-17.65 175.01-15.92 172.96-15.42L172.96-15.42 172.96-15.22Q175.67-14.51 176.88-12.84 178.09-11.17 178.09-8.51L178.09-8.51Q178.09-4.55 175.12-2.28 172.15 0 167.02 0L167.02 0 155.71 0ZM163.56-23.11L163.56-17.91 165.93-17.91Q167.62-17.91 168.54-18.6 169.47-19.3 169.47-20.67L169.47-20.67Q169.47-23.11 165.77-23.11L165.77-23.11 163.56-23.11ZM166.17-12.16L163.56-12.16 163.56-6.06 166.33-6.06Q170-6.06 170-9.16L170-9.16Q170-10.61 169.02-11.39 168.04-12.16 166.17-12.16L166.17-12.16Z" transform="translate(-1.7899999618530273, 29.469999313354492)"/></g> </g></g> </g></g><defs v-gra="od"/>
  </svg>
</svg>


