<svg width="638" height="192" viewBox="0 0 638 192" fill="none" xmlns="http://www.w3.org/2000/svg">
<g filter="url(#filter0_d_1249_316)">
<rect x="391.75" y="3.75" width="237.5" height="96.5" rx="23.25" fill="white" stroke="#EAEAEA" stroke-width="1.5"/>
<rect x="443" y="20" width="56" height="10" rx="2" fill="#EEEEEE"/>
<rect x="443" y="34" width="36" height="9" rx="2" fill="#EEEEEE"/>
<rect x="407.5" y="19.5" width="23" height="23" rx="5.5" fill="#58CDFF" stroke="#308EB6"/>
<rect x="411" y="24" width="7" height="4" rx="1" fill="white"/>
<rect x="420" y="24" width="7" height="14" rx="1" fill="white"/>
<rect x="411" y="30" width="7" height="8" rx="1" fill="white"/>
<line x1="407" y1="54.5" x2="614" y2="54.5" stroke="#ECECEC"/>
<path d="M414.456 83L413.64 80.472H409.512L408.696 83H407.336L410.952 72.12H412.264L415.896 83H414.456ZM410.52 77.336L409.912 79.208H413.224L412.616 77.336L411.576 73.976L410.52 77.336ZM421.388 76.152C421.089 76.152 420.737 76.2267 420.332 76.376C419.937 76.5253 419.457 76.8293 418.892 77.288V83H417.58V75.08H418.828V76.184C419.393 75.704 419.905 75.3733 420.364 75.192C420.833 75.0107 421.281 74.92 421.708 74.92C422.444 74.92 423.004 75.1547 423.388 75.624C423.783 76.0827 423.98 76.7387 423.98 77.592V83H422.668V77.784C422.668 76.696 422.241 76.152 421.388 76.152ZM432.513 83.08C432.022 83.08 431.627 82.968 431.329 82.744C431.041 82.52 430.838 82.2427 430.721 81.912C430.198 82.3707 429.723 82.696 429.297 82.888C428.87 83.0693 428.443 83.16 428.017 83.16C427.323 83.16 426.811 82.936 426.481 82.488C426.15 82.04 425.985 81.4907 425.985 80.84C425.985 80.4027 426.065 80.0133 426.225 79.672C426.385 79.3307 426.657 79.064 427.041 78.872C427.425 78.6693 427.942 78.568 428.593 78.568C428.881 78.568 429.195 78.5893 429.536 78.632C429.878 78.664 430.225 78.7067 430.577 78.76V77.688C430.577 77.0907 430.443 76.6853 430.177 76.472C429.921 76.248 429.542 76.136 429.041 76.136C428.358 76.136 427.595 76.3227 426.753 76.696L426.337 75.608C426.827 75.384 427.297 75.2133 427.745 75.096C428.193 74.9787 428.646 74.92 429.105 74.92C429.851 74.92 430.422 75.0427 430.817 75.288C431.211 75.5333 431.483 75.8587 431.633 76.264C431.782 76.6693 431.857 77.112 431.857 77.592V81.016C431.857 81.2613 431.905 81.4693 432.001 81.64C432.097 81.8 432.289 81.88 432.577 81.88H432.753V83.08H432.513ZM427.281 80.824C427.281 81.1867 427.366 81.48 427.537 81.704C427.707 81.928 427.953 82.04 428.273 82.04C428.55 82.04 428.87 81.96 429.233 81.8C429.595 81.6293 430.043 81.2933 430.577 80.792V79.784C429.851 79.6667 429.211 79.608 428.657 79.608C428.166 79.608 427.814 79.7093 427.601 79.912C427.387 80.1147 427.281 80.4187 427.281 80.824ZM434.595 81.08V71.16H435.907V81.016C435.907 81.304 435.95 81.5227 436.035 81.672C436.131 81.8107 436.318 81.88 436.595 81.88H436.851V83.08H436.483C435.779 83.08 435.288 82.8933 435.011 82.52C434.734 82.1467 434.595 81.6667 434.595 81.08ZM441.534 83.8C441.193 84.76 440.771 85.4587 440.27 85.896C439.779 86.344 439.091 86.568 438.206 86.568V85.272C438.569 85.2613 438.878 85.2133 439.134 85.128C439.401 85.0427 439.635 84.8667 439.838 84.6C440.051 84.344 440.254 83.96 440.446 83.448L440.606 83.048L437.758 75.08H439.102L440.43 78.936L441.246 81.4L442.03 78.936L443.326 75.08H444.622L441.534 83.8ZM451.033 81.864V83H445.529V81.976L449.321 76.232H445.689V75.08H450.873V76.12L447.065 81.864H451.033ZM454.363 73.144H452.891V71.672H454.363V73.144ZM454.283 83H452.971V75.08H454.283V83ZM460.919 76.152C460.62 76.152 460.268 76.2267 459.863 76.376C459.468 76.5253 458.988 76.8293 458.423 77.288V83H457.111V75.08H458.359V76.184C458.924 75.704 459.436 75.3733 459.895 75.192C460.364 75.0107 460.812 74.92 461.239 74.92C461.975 74.92 462.535 75.1547 462.919 75.624C463.314 76.0827 463.511 76.7387 463.511 77.592V83H462.199V77.784C462.199 76.696 461.772 76.152 460.919 76.152ZM472.588 83.992C472.588 84.7707 472.268 85.3947 471.628 85.864C470.998 86.3333 470.129 86.568 469.02 86.568C468.465 86.568 467.884 86.4933 467.276 86.344C466.678 86.1947 466.113 85.9547 465.58 85.624L466.028 84.6C466.561 84.8987 467.073 85.1067 467.564 85.224C468.065 85.352 468.55 85.416 469.02 85.416C469.745 85.416 470.305 85.2987 470.7 85.064C471.094 84.8293 471.292 84.5147 471.292 84.12C471.292 83.832 471.196 83.608 471.004 83.448C470.812 83.2987 470.502 83.224 470.076 83.224H468.236C467.542 83.224 467.041 83.0587 466.732 82.728C466.422 82.3973 466.268 82.0347 466.268 81.64C466.268 81.3627 466.332 81.0907 466.46 80.824C466.588 80.5467 466.769 80.2747 467.004 80.008C466.63 79.784 466.332 79.48 466.108 79.096C465.884 78.7013 465.772 78.2267 465.772 77.672C465.772 77.064 465.9 76.5573 466.156 76.152C466.422 75.7467 466.774 75.4427 467.212 75.24C467.649 75.0267 468.14 74.92 468.684 74.92H468.956C469.329 74.92 469.67 74.9733 469.98 75.08H472.828V76.248L471.1 76.008C471.324 76.2 471.505 76.44 471.644 76.728C471.782 77.0053 471.852 77.3467 471.852 77.752C471.852 78.328 471.718 78.8133 471.452 79.208C471.196 79.6027 470.849 79.9067 470.412 80.12C469.974 80.3227 469.489 80.424 468.956 80.424H468.684C468.545 80.424 468.412 80.4187 468.284 80.408C468.156 80.3867 468.028 80.3653 467.9 80.344C467.59 80.6853 467.436 81.0213 467.436 81.352C467.436 81.7787 467.734 81.992 468.332 81.992H470.124C470.892 81.992 471.494 82.1627 471.932 82.504C472.369 82.8453 472.588 83.3413 472.588 83.992ZM468.956 79.288C469.372 79.288 469.74 79.1547 470.06 78.888C470.38 78.6213 470.54 78.216 470.54 77.672C470.54 77.1387 470.38 76.7387 470.06 76.472C469.74 76.1947 469.372 76.056 468.956 76.056H468.684C468.257 76.056 467.884 76.1947 467.564 76.472C467.244 76.7387 467.084 77.1387 467.084 77.672C467.084 78.216 467.244 78.6213 467.564 78.888C467.884 79.1547 468.257 79.288 468.684 79.288H468.956ZM475.428 83H473.956V81.544H475.428V83ZM478.506 83H477.034V81.544H478.506V83ZM481.585 83H480.113V81.544H481.585V83ZM484.663 83H483.191V81.544H484.663V83ZM487.741 83H486.269V81.544H487.741V83ZM490.819 83H489.347V81.544H490.819V83Z" fill="black" fill-opacity="0.4"/>
<rect x="577" y="74" width="8" height="8" rx="2" fill="#313131"/>
<rect x="589" y="74" width="8" height="8" rx="2" fill="#B3B3B3"/>
<rect x="601" y="74" width="8" height="8" rx="2" fill="#D4D4D4"/>
</g>
<path d="M390.5 54H159.182C151.553 54 144.084 51.8186 137.654 47.713L74.3457 7.28703C67.9162 3.18142 60.4467 1 52.8182 1H0" stroke="#E8E8E8"/>
<path d="M507.5 100V117.824C507.5 126.559 513.168 134.283 521.499 136.903L555.501 147.597C563.832 150.217 569.5 157.941 569.5 166.676V192" stroke="#E8E8E8"/>
<path d="M507.5 100V117.824C507.5 126.559 513.168 134.283 521.499 136.903L555.501 147.597C563.832 150.217 569.5 157.941 569.5 166.676V192" stroke="url(#paint0_linear_1249_316)"/>
<defs>
<filter id="filter0_d_1249_316" x="383" y="0" width="255" height="114" filterUnits="userSpaceOnUse" color-interpolation-filters="sRGB">
<feFlood flood-opacity="0" result="BackgroundImageFix"/>
<feColorMatrix in="SourceAlpha" type="matrix" values="0 0 0 0 0 0 0 0 0 0 0 0 0 0 0 0 0 0 127 0" result="hardAlpha"/>
<feOffset dy="5"/>
<feGaussianBlur stdDeviation="4"/>
<feComposite in2="hardAlpha" operator="out"/>
<feColorMatrix type="matrix" values="0 0 0 0 0 0 0 0 0 0 0 0 0 0 0 0 0 0 0.05 0"/>
<feBlend mode="normal" in2="BackgroundImageFix" result="effect1_dropShadow_1249_316"/>
<feBlend mode="normal" in="SourceGraphic" in2="effect1_dropShadow_1249_316" result="shape"/>
</filter>
<linearGradient id="paint0_linear_1249_316" x1="538.5" y1="100" x2="538.5" y2="192" gradientUnits="userSpaceOnUse">
<stop stop-color="#E8E8E8" stop-opacity="0"/>
<stop offset="1" stop-color="#1C89EA"/>
</linearGradient>
</defs>
</svg>
