<svg width="670" height="381" viewBox="0 0 670 381" fill="none" xmlns="http://www.w3.org/2000/svg">
<g filter="url(#filter0_d_1247_315)">
<rect x="391.75" y="192.75" width="237.5" height="96.5" rx="23.25" fill="white" stroke="#EAEAEA" stroke-width="1.5"/>
<rect x="443" y="209" width="56" height="10" rx="2" fill="#EEEEEE"/>
<rect x="443" y="223" width="36" height="9" rx="2" fill="#EEEEEE"/>
<rect x="407.5" y="208.5" width="23" height="23" rx="5.5" fill="#58CDFF" stroke="#308EB6"/>
<rect x="411" y="213" width="7" height="4" rx="1" fill="white"/>
<rect x="420" y="213" width="7" height="14" rx="1" fill="white"/>
<rect x="411" y="219" width="7" height="8" rx="1" fill="white"/>
<line x1="407" y1="243.5" x2="614" y2="243.5" stroke="#ECECEC"/>
<path d="M414.456 272L413.64 269.472H409.512L408.696 272H407.336L410.952 261.12H412.264L415.896 272H414.456ZM410.52 266.336L409.912 268.208H413.224L412.616 266.336L411.576 262.976L410.52 266.336ZM421.388 265.152C421.089 265.152 420.737 265.227 420.332 265.376C419.937 265.525 419.457 265.829 418.892 266.288V272H417.58V264.08H418.828V265.184C419.393 264.704 419.905 264.373 420.364 264.192C420.833 264.011 421.281 263.92 421.708 263.92C422.444 263.92 423.004 264.155 423.388 264.624C423.783 265.083 423.98 265.739 423.98 266.592V272H422.668V266.784C422.668 265.696 422.241 265.152 421.388 265.152ZM432.513 272.08C432.022 272.08 431.627 271.968 431.329 271.744C431.041 271.52 430.838 271.243 430.721 270.912C430.198 271.371 429.723 271.696 429.297 271.888C428.87 272.069 428.443 272.16 428.017 272.16C427.323 272.16 426.811 271.936 426.481 271.488C426.15 271.04 425.985 270.491 425.985 269.84C425.985 269.403 426.065 269.013 426.225 268.672C426.385 268.331 426.657 268.064 427.041 267.872C427.425 267.669 427.942 267.568 428.593 267.568C428.881 267.568 429.195 267.589 429.536 267.632C429.878 267.664 430.225 267.707 430.577 267.76V266.688C430.577 266.091 430.443 265.685 430.177 265.472C429.921 265.248 429.542 265.136 429.041 265.136C428.358 265.136 427.595 265.323 426.753 265.696L426.337 264.608C426.827 264.384 427.297 264.213 427.745 264.096C428.193 263.979 428.646 263.92 429.105 263.92C429.851 263.92 430.422 264.043 430.817 264.288C431.211 264.533 431.483 264.859 431.633 265.264C431.782 265.669 431.857 266.112 431.857 266.592V270.016C431.857 270.261 431.905 270.469 432.001 270.64C432.097 270.8 432.289 270.88 432.577 270.88H432.753V272.08H432.513ZM427.281 269.824C427.281 270.187 427.366 270.48 427.537 270.704C427.707 270.928 427.953 271.04 428.273 271.04C428.55 271.04 428.87 270.96 429.233 270.8C429.595 270.629 430.043 270.293 430.577 269.792V268.784C429.851 268.667 429.211 268.608 428.657 268.608C428.166 268.608 427.814 268.709 427.601 268.912C427.387 269.115 427.281 269.419 427.281 269.824ZM434.595 270.08V260.16H435.907V270.016C435.907 270.304 435.95 270.523 436.035 270.672C436.131 270.811 436.318 270.88 436.595 270.88H436.851V272.08H436.483C435.779 272.08 435.288 271.893 435.011 271.52C434.734 271.147 434.595 270.667 434.595 270.08ZM441.534 272.8C441.193 273.76 440.771 274.459 440.27 274.896C439.779 275.344 439.091 275.568 438.206 275.568V274.272C438.569 274.261 438.878 274.213 439.134 274.128C439.401 274.043 439.635 273.867 439.838 273.6C440.051 273.344 440.254 272.96 440.446 272.448L440.606 272.048L437.758 264.08H439.102L440.43 267.936L441.246 270.4L442.03 267.936L443.326 264.08H444.622L441.534 272.8ZM451.033 270.864V272H445.529V270.976L449.321 265.232H445.689V264.08H450.873V265.12L447.065 270.864H451.033ZM454.363 262.144H452.891V260.672H454.363V262.144ZM454.283 272H452.971V264.08H454.283V272ZM460.919 265.152C460.62 265.152 460.268 265.227 459.863 265.376C459.468 265.525 458.988 265.829 458.423 266.288V272H457.111V264.08H458.359V265.184C458.924 264.704 459.436 264.373 459.895 264.192C460.364 264.011 460.812 263.92 461.239 263.92C461.975 263.92 462.535 264.155 462.919 264.624C463.314 265.083 463.511 265.739 463.511 266.592V272H462.199V266.784C462.199 265.696 461.772 265.152 460.919 265.152ZM472.588 272.992C472.588 273.771 472.268 274.395 471.628 274.864C470.998 275.333 470.129 275.568 469.02 275.568C468.465 275.568 467.884 275.493 467.276 275.344C466.678 275.195 466.113 274.955 465.58 274.624L466.028 273.6C466.561 273.899 467.073 274.107 467.564 274.224C468.065 274.352 468.55 274.416 469.02 274.416C469.745 274.416 470.305 274.299 470.7 274.064C471.094 273.829 471.292 273.515 471.292 273.12C471.292 272.832 471.196 272.608 471.004 272.448C470.812 272.299 470.502 272.224 470.076 272.224H468.236C467.542 272.224 467.041 272.059 466.732 271.728C466.422 271.397 466.268 271.035 466.268 270.64C466.268 270.363 466.332 270.091 466.46 269.824C466.588 269.547 466.769 269.275 467.004 269.008C466.63 268.784 466.332 268.48 466.108 268.096C465.884 267.701 465.772 267.227 465.772 266.672C465.772 266.064 465.9 265.557 466.156 265.152C466.422 264.747 466.774 264.443 467.212 264.24C467.649 264.027 468.14 263.92 468.684 263.92H468.956C469.329 263.92 469.67 263.973 469.98 264.08H472.828V265.248L471.1 265.008C471.324 265.2 471.505 265.44 471.644 265.728C471.782 266.005 471.852 266.347 471.852 266.752C471.852 267.328 471.718 267.813 471.452 268.208C471.196 268.603 470.849 268.907 470.412 269.12C469.974 269.323 469.489 269.424 468.956 269.424H468.684C468.545 269.424 468.412 269.419 468.284 269.408C468.156 269.387 468.028 269.365 467.9 269.344C467.59 269.685 467.436 270.021 467.436 270.352C467.436 270.779 467.734 270.992 468.332 270.992H470.124C470.892 270.992 471.494 271.163 471.932 271.504C472.369 271.845 472.588 272.341 472.588 272.992ZM468.956 268.288C469.372 268.288 469.74 268.155 470.06 267.888C470.38 267.621 470.54 267.216 470.54 266.672C470.54 266.139 470.38 265.739 470.06 265.472C469.74 265.195 469.372 265.056 468.956 265.056H468.684C468.257 265.056 467.884 265.195 467.564 265.472C467.244 265.739 467.084 266.139 467.084 266.672C467.084 267.216 467.244 267.621 467.564 267.888C467.884 268.155 468.257 268.288 468.684 268.288H468.956ZM475.428 272H473.956V270.544H475.428V272ZM478.506 272H477.034V270.544H478.506V272ZM481.585 272H480.113V270.544H481.585V272ZM484.663 272H483.191V270.544H484.663V272ZM487.741 272H486.269V270.544H487.741V272ZM490.819 272H489.347V270.544H490.819V272Z" fill="black" fill-opacity="0.4"/>
<rect x="577" y="263" width="8" height="8" rx="2" fill="#313131"/>
<rect x="589" y="263" width="8" height="8" rx="2" fill="#B3B3B3"/>
<rect x="601" y="263" width="8" height="8" rx="2" fill="#D4D4D4"/>
</g>
<path d="M628 74V109.645C628 118.933 621.606 126.998 612.563 129.117L523.937 149.883C514.894 152.002 508.5 160.067 508.5 169.355V199" stroke="#E8E8E8"/>
<path d="M628 74V109.645C628 118.933 621.606 126.998 612.563 129.117L523.937 149.883C514.894 152.002 508.5 160.067 508.5 169.355V199" stroke="url(#paint0_linear_1247_315)"/>
<path d="M390.5 243H159.182C151.553 243 144.084 240.819 137.654 236.713L74.3457 196.287C67.9162 192.181 60.4467 190 52.8182 190H0" stroke="#E8E8E8"/>
<path d="M507.5 289V306.824C507.5 315.559 513.168 323.283 521.499 325.903L555.501 336.597C563.832 339.217 569.5 346.941 569.5 355.676V381" stroke="#E8E8E8"/>
<path d="M507.5 289V306.824C507.5 315.559 513.168 323.283 521.499 325.903L555.501 336.597C563.832 339.217 569.5 346.941 569.5 355.676V381" stroke="url(#paint1_linear_1247_315)"/>
<rect x="582.75" y="0.75" width="86.5" height="86.5" rx="23.25" fill="white" stroke="#EAEAEA" stroke-width="1.5"/>
<rect x="595" y="18" width="17" height="6" rx="3" fill="#D9D9D9"/>
<rect x="595" y="28" width="17" height="6" rx="3" fill="#EDEDED"/>
<defs>
<filter id="filter0_d_1247_315" x="383" y="189" width="255" height="114" filterUnits="userSpaceOnUse" color-interpolation-filters="sRGB">
<feFlood flood-opacity="0" result="BackgroundImageFix"/>
<feColorMatrix in="SourceAlpha" type="matrix" values="0 0 0 0 0 0 0 0 0 0 0 0 0 0 0 0 0 0 127 0" result="hardAlpha"/>
<feOffset dy="5"/>
<feGaussianBlur stdDeviation="4"/>
<feComposite in2="hardAlpha" operator="out"/>
<feColorMatrix type="matrix" values="0 0 0 0 0 0 0 0 0 0 0 0 0 0 0 0 0 0 0.05 0"/>
<feBlend mode="normal" in2="BackgroundImageFix" result="effect1_dropShadow_1247_315"/>
<feBlend mode="normal" in="SourceGraphic" in2="effect1_dropShadow_1247_315" result="shape"/>
</filter>
<linearGradient id="paint0_linear_1247_315" x1="568" y1="100" x2="568" y2="179" gradientUnits="userSpaceOnUse">
<stop offset="0.182692" stop-color="white" stop-opacity="0"/>
<stop offset="0.514423" stop-color="#1C89EA"/>
<stop offset="0.894231" stop-color="white" stop-opacity="0"/>
</linearGradient>
<linearGradient id="paint1_linear_1247_315" x1="538.5" y1="289" x2="538.5" y2="381" gradientUnits="userSpaceOnUse">
<stop stop-color="#E8E8E8" stop-opacity="0"/>
<stop offset="1" stop-color="#1C89EA"/>
</linearGradient>
</defs>
</svg>
